%TF.GenerationSoftware,KiCad,Pcbnew,10.0.5*%
%TF.CreationDate,2026-08-19T12:06:28+05:30*%
%TF.ProjectId,custom_SSTC,63757374-6f6d-45f5-9353-54432e6b6963,rev?*%
%TF.SameCoordinates,Original*%
%TF.FileFunction,Paste,Top*%
%TF.FilePolarity,Positive*%
%FSLAX46Y46*%
G04 Gerber Fmt 4.6, Leading zero omitted, Abs format (unit mm)*
G04 Created by KiCad (PCBNEW 10.0.5) date 2026-08-19 12:06:28*
%MOMM*%
%LPD*%
G01*
G04 APERTURE LIST*
G04 Aperture macros list*
%AMRoundRect*
0 Rectangle with rounded corners*
0 $1 Rounding radius*
0 $2 $3 $4 $5 $6 $7 $8 $9 X,Y pos of 4 corners*
0 Add a 4 corners polygon primitive as box body*
4,1,4,$2,$3,$4,$5,$6,$7,$8,$9,$2,$3,0*
0 Add four circle primitives for the rounded corners*
1,1,$1+$1,$2,$3*
1,1,$1+$1,$4,$5*
1,1,$1+$1,$6,$7*
1,1,$1+$1,$8,$9*
0 Add four rect primitives between the rounded corners*
20,1,$1+$1,$2,$3,$4,$5,0*
20,1,$1+$1,$4,$5,$6,$7,0*
20,1,$1+$1,$6,$7,$8,$9,0*
20,1,$1+$1,$8,$9,$2,$3,0*%
G04 Aperture macros list end*
%ADD10RoundRect,0.237500X0.237500X-0.300000X0.237500X0.300000X-0.237500X0.300000X-0.237500X-0.300000X0*%
%ADD11RoundRect,0.237500X-0.300000X-0.237500X0.300000X-0.237500X0.300000X0.237500X-0.300000X0.237500X0*%
%ADD12RoundRect,0.147500X-0.147500X0.467500X-0.147500X-0.467500X0.147500X-0.467500X0.147500X0.467500X0*%
%ADD13RoundRect,0.150000X0.150000X-0.825000X0.150000X0.825000X-0.150000X0.825000X-0.150000X-0.825000X0*%
%ADD14RoundRect,0.237500X0.300000X0.237500X-0.300000X0.237500X-0.300000X-0.237500X0.300000X-0.237500X0*%
%ADD15RoundRect,0.237500X-0.237500X0.300000X-0.237500X-0.300000X0.237500X-0.300000X0.237500X0.300000X0*%
%ADD16R,2.120000X2.280000*%
G04 APERTURE END LIST*
D10*
%TO.C,C13*%
X181780000Y-43657500D03*
X181780000Y-45382500D03*
%TD*%
D11*
%TO.C,C17*%
X186062500Y-34300000D03*
X184337500Y-34300000D03*
%TD*%
D12*
%TO.C,U6*%
X185300000Y-38300000D03*
X184350000Y-36180000D03*
X186250000Y-36180000D03*
%TD*%
D10*
%TO.C,C6*%
X201810000Y-31253750D03*
X201810000Y-32978750D03*
%TD*%
D13*
%TO.C,Q1*%
X196305000Y-34991250D03*
X197575000Y-34991250D03*
X198845000Y-34991250D03*
X200115000Y-34991250D03*
X200115000Y-30041250D03*
X198845000Y-30041250D03*
X197575000Y-30041250D03*
X196305000Y-30041250D03*
%TD*%
D10*
%TO.C,C1*%
X194710000Y-31553750D03*
X194710000Y-33278750D03*
%TD*%
D14*
%TO.C,C11*%
X206772500Y-37416250D03*
X205047500Y-37416250D03*
%TD*%
%TO.C,C10*%
X198172500Y-37416250D03*
X196447500Y-37416250D03*
%TD*%
D10*
%TO.C,C15*%
X190474500Y-67542500D03*
X190474500Y-65817500D03*
%TD*%
D11*
%TO.C,C3*%
X190422000Y-88000000D03*
X192147000Y-88000000D03*
%TD*%
D10*
%TO.C,C2*%
X184000000Y-103362500D03*
X184000000Y-101637500D03*
%TD*%
%TO.C,C14*%
X190100000Y-44500000D03*
X190100000Y-46225000D03*
%TD*%
D14*
%TO.C,C12*%
X203300625Y-55433126D03*
X201575625Y-55433126D03*
%TD*%
D15*
%TO.C,C22*%
X209838750Y-24267500D03*
X209838750Y-25992500D03*
%TD*%
D13*
%TO.C,Q2*%
X203505000Y-34891250D03*
X204775000Y-34891250D03*
X206045000Y-34891250D03*
X207315000Y-34891250D03*
X207315000Y-29941250D03*
X206045000Y-29941250D03*
X204775000Y-29941250D03*
X203505000Y-29941250D03*
%TD*%
D10*
%TO.C,C16*%
X209938750Y-20892500D03*
X209938750Y-19167500D03*
%TD*%
D16*
%TO.C,D16*%
X252200000Y-98365000D03*
X252200000Y-94035000D03*
%TD*%
%TO.C,D6*%
X252150000Y-45505000D03*
X252150000Y-41175000D03*
%TD*%
%TO.C,D5*%
X252300000Y-22015000D03*
X252300000Y-17685000D03*
%TD*%
%TO.C,D15*%
X252300000Y-77715000D03*
X252300000Y-73385000D03*
%TD*%
D10*
%TO.C,C8*%
X212250000Y-20612500D03*
X212250000Y-18887500D03*
%TD*%
M02*
