%TF.GenerationSoftware,KiCad,Pcbnew,10.0.6*%
%TF.CreationDate,2026-09-27T16:50:04-04:00*%
%TF.ProjectId,PLL_SSTC,504c4c5f-5353-4544-932e-6b696361645f,rev?*%
%TF.SameCoordinates,Original*%
%TF.FileFunction,Soldermask,Bot*%
%TF.FilePolarity,Negative*%
%FSLAX46Y46*%
G04 Gerber Fmt 4.6, Leading zero omitted, Abs format (unit mm)*
G04 Created by KiCad (PCBNEW 10.0.6) date 2026-09-27 16:50:04*
%MOMM*%
%LPD*%
G01*
G04 APERTURE LIST*
G04 Aperture macros list*
%AMRoundRect*
0 Rectangle with rounded corners*
0 $1 Rounding radius*
0 $2 $3 $4 $5 $6 $7 $8 $9 X,Y pos of 4 corners*
0 Add a 4 corners polygon primitive as box body*
4,1,4,$2,$3,$4,$5,$6,$7,$8,$9,$2,$3,0*
0 Add four circle primitives for the rounded corners*
1,1,$1+$1,$2,$3*
1,1,$1+$1,$4,$5*
1,1,$1+$1,$6,$7*
1,1,$1+$1,$8,$9*
0 Add four rect primitives between the rounded corners*
20,1,$1+$1,$2,$3,$4,$5,0*
20,1,$1+$1,$4,$5,$6,$7,0*
20,1,$1+$1,$6,$7,$8,$9,0*
20,1,$1+$1,$8,$9,$2,$3,0*%
G04 Aperture macros list end*
%ADD10RoundRect,0.102000X-1.005000X-1.005000X1.005000X-1.005000X1.005000X1.005000X-1.005000X1.005000X0*%
%ADD11C,2.214000*%
%ADD12C,1.440000*%
%ADD13RoundRect,0.102000X-1.342500X1.342500X-1.342500X-1.342500X1.342500X-1.342500X1.342500X1.342500X0*%
%ADD14C,2.889000*%
%ADD15RoundRect,0.250000X0.950000X0.550000X-0.950000X0.550000X-0.950000X-0.550000X0.950000X-0.550000X0*%
%ADD16O,2.400000X1.600000*%
%ADD17R,1.700000X1.700000*%
%ADD18C,1.700000*%
%ADD19C,2.400000*%
%ADD20RoundRect,0.250000X-0.550000X-0.550000X0.550000X-0.550000X0.550000X0.550000X-0.550000X0.550000X0*%
%ADD21C,1.600000*%
%ADD22RoundRect,0.102000X-0.565000X-0.565000X0.565000X-0.565000X0.565000X0.565000X-0.565000X0.565000X0*%
%ADD23C,1.334000*%
%ADD24C,1.400000*%
%ADD25RoundRect,0.102000X-0.610000X-0.610000X0.610000X-0.610000X0.610000X0.610000X-0.610000X0.610000X0*%
%ADD26C,1.424000*%
%ADD27C,2.700000*%
%ADD28RoundRect,0.102000X1.005000X1.005000X-1.005000X1.005000X-1.005000X-1.005000X1.005000X-1.005000X0*%
%ADD29RoundRect,0.249999X0.850001X0.850001X-0.850001X0.850001X-0.850001X-0.850001X0.850001X-0.850001X0*%
%ADD30C,2.200000*%
%ADD31RoundRect,0.250002X-2.749998X-2.749998X2.749998X-2.749998X2.749998X2.749998X-2.749998X2.749998X0*%
%ADD32RoundRect,0.250000X0.550000X-0.550000X0.550000X0.550000X-0.550000X0.550000X-0.550000X-0.550000X0*%
%ADD33RoundRect,0.250000X-0.950000X-0.550000X0.950000X-0.550000X0.950000X0.550000X-0.950000X0.550000X0*%
%ADD34RoundRect,0.190500X-0.444500X-0.444500X0.444500X-0.444500X0.444500X0.444500X-0.444500X0.444500X0*%
%ADD35RoundRect,0.250002X2.749998X-2.749998X2.749998X2.749998X-2.749998X2.749998X-2.749998X-2.749998X0*%
%ADD36RoundRect,0.250000X-1.050000X1.050000X-1.050000X-1.050000X1.050000X-1.050000X1.050000X1.050000X0*%
%ADD37C,2.600000*%
%ADD38RoundRect,0.250001X-0.949999X-0.949999X0.949999X-0.949999X0.949999X0.949999X-0.949999X0.949999X0*%
%ADD39RoundRect,0.102000X-0.609000X0.609000X-0.609000X-0.609000X0.609000X-0.609000X0.609000X0.609000X0*%
%ADD40C,1.422000*%
%ADD41RoundRect,0.249999X-0.850001X-0.850001X0.850001X-0.850001X0.850001X0.850001X-0.850001X0.850001X0*%
%ADD42R,1.905000X2.000000*%
%ADD43O,1.905000X2.000000*%
%ADD44RoundRect,0.102000X-0.838200X-0.838200X0.838200X-0.838200X0.838200X0.838200X-0.838200X0.838200X0*%
%ADD45C,1.880400*%
%ADD46C,4.000000*%
%ADD47C,5.000000*%
%ADD48C,3.800000*%
%ADD49C,3.500000*%
G04 APERTURE END LIST*
D10*
%TO.C,D19*%
X251720000Y-112300000D03*
D11*
X256800000Y-112300000D03*
%TD*%
D12*
%TO.C,RV1*%
X174000000Y-30040000D03*
X174000000Y-27500000D03*
X174000000Y-24960000D03*
%TD*%
D13*
%TO.C,Q4*%
X257445000Y-44466420D03*
D14*
X257445000Y-49926420D03*
X257445000Y-55386420D03*
%TD*%
D13*
%TO.C,Q6*%
X257390000Y-95466420D03*
D14*
X257390000Y-100926420D03*
X257390000Y-106386420D03*
%TD*%
D15*
%TO.C,GD1*%
X206975000Y-63565000D03*
D16*
X206975000Y-61025000D03*
X206975000Y-58485000D03*
X206975000Y-55945000D03*
X199355000Y-55945000D03*
X199355000Y-58485000D03*
X199355000Y-61025000D03*
X199355000Y-63565000D03*
%TD*%
D17*
%TO.C,+12V2*%
X218268125Y-28086874D03*
D18*
X218268125Y-30626874D03*
%TD*%
D19*
%TO.C,R19*%
X250000000Y-65500000D03*
X242380000Y-65500000D03*
%TD*%
D20*
%TO.C,D8*%
X229190000Y-58000000D03*
D21*
X236810000Y-58000000D03*
%TD*%
D19*
%TO.C,R15*%
X234065000Y-111835000D03*
X241685000Y-111835000D03*
%TD*%
D22*
%TO.C,U1*%
X177328125Y-45991874D03*
D23*
X177328125Y-48531874D03*
X177328125Y-51071874D03*
X177328125Y-53611874D03*
X177328125Y-56151874D03*
X177328125Y-58691874D03*
X177328125Y-61231874D03*
X177328125Y-63771874D03*
X185268125Y-63771874D03*
X185268125Y-61231874D03*
X185268125Y-58691874D03*
X185268125Y-56151874D03*
X185268125Y-53611874D03*
X185268125Y-51071874D03*
X185268125Y-48531874D03*
X185268125Y-45991874D03*
%TD*%
D24*
%TO.C,Re1*%
X186468125Y-33441874D03*
X186468125Y-31541874D03*
%TD*%
D25*
%TO.C,U3*%
X188018125Y-89121874D03*
D26*
X188018125Y-91661874D03*
X188018125Y-94201874D03*
X188018125Y-96741874D03*
X188018125Y-99281874D03*
X188018125Y-101821874D03*
X188018125Y-104361874D03*
X195665125Y-104361874D03*
X195665125Y-101821874D03*
X195665125Y-99281874D03*
X195665125Y-96741874D03*
X195665125Y-94201874D03*
X195665125Y-91661874D03*
X195665125Y-89121874D03*
%TD*%
D13*
%TO.C,Q3*%
X257390000Y-22466420D03*
D14*
X257390000Y-27926420D03*
X257390000Y-33386420D03*
%TD*%
D21*
%TO.C,R21*%
X174018125Y-76921874D03*
X174018125Y-66761874D03*
%TD*%
D12*
%TO.C,RV3*%
X173523125Y-87811874D03*
X173523125Y-85271874D03*
X173523125Y-82731874D03*
%TD*%
D19*
%TO.C,R11*%
X230215000Y-62000000D03*
X237835000Y-62000000D03*
%TD*%
D21*
%TO.C,C21*%
X252000000Y-106200000D03*
X252000000Y-101200000D03*
%TD*%
D27*
%TO.C,REF\u002A\u002A*%
X172750000Y-17000000D03*
%TD*%
D21*
%TO.C,R7*%
X207043125Y-52688124D03*
X207043125Y-42528124D03*
%TD*%
D19*
%TO.C,C24*%
X232500000Y-26750000D03*
X232500000Y-54250000D03*
%TD*%
D21*
%TO.C,R3*%
X174528125Y-45561874D03*
X174528125Y-55721874D03*
%TD*%
D28*
%TO.C,D12*%
X251470000Y-56645000D03*
D11*
X246390000Y-56645000D03*
%TD*%
D21*
%TO.C,C5*%
X183918125Y-30861874D03*
X178918125Y-30861874D03*
%TD*%
D19*
%TO.C,C9*%
X232500000Y-76250000D03*
X232500000Y-103750000D03*
%TD*%
D21*
%TO.C,C4*%
X174518125Y-58261874D03*
X174518125Y-63261874D03*
%TD*%
D29*
%TO.C,D2*%
X195598125Y-109111874D03*
D30*
X185438125Y-109111874D03*
%TD*%
D17*
%TO.C,+12V1*%
X213768125Y-28086874D03*
D18*
X213768125Y-30626874D03*
%TD*%
D13*
%TO.C,Q5*%
X257390000Y-78466420D03*
D14*
X257390000Y-83926420D03*
X257390000Y-89386420D03*
%TD*%
D31*
%TO.C,J3*%
X212500000Y-110000000D03*
%TD*%
D32*
%TO.C,D3*%
X201043125Y-52671874D03*
D21*
X201043125Y-45051874D03*
%TD*%
%TO.C,R9*%
X189418125Y-33281874D03*
X189418125Y-43441874D03*
%TD*%
%TO.C,R20*%
X185018125Y-101941874D03*
X185018125Y-91781874D03*
%TD*%
D33*
%TO.C,U2*%
X187492625Y-68501874D03*
D16*
X187492625Y-71041874D03*
X187492625Y-73581874D03*
X187492625Y-76121874D03*
X187492625Y-78661874D03*
X187492625Y-81201874D03*
X187492625Y-83741874D03*
X195112625Y-83741874D03*
X195112625Y-81201874D03*
X195112625Y-78661874D03*
X195112625Y-76121874D03*
X195112625Y-73581874D03*
X195112625Y-71041874D03*
X195112625Y-68501874D03*
%TD*%
D34*
%TO.C,U7*%
X220500000Y-66000000D03*
X200500000Y-66000000D03*
X220500000Y-74500000D03*
X200500000Y-74500000D03*
X220500000Y-84000000D03*
X200500000Y-84100000D03*
X220500000Y-92500000D03*
X200500000Y-92500000D03*
X220500000Y-102000000D03*
X200500000Y-102000000D03*
%TD*%
D31*
%TO.C,J4*%
X223500000Y-110000000D03*
%TD*%
D27*
%TO.C,REF\u002A\u002A*%
X263000000Y-112000000D03*
%TD*%
D35*
%TO.C,J1*%
X262300000Y-64000000D03*
%TD*%
D21*
%TO.C,C18*%
X252100000Y-29800000D03*
X252100000Y-24800000D03*
%TD*%
D27*
%TO.C,REF\u002A\u002A*%
X203000000Y-111000000D03*
%TD*%
D36*
%TO.C,J5*%
X176718125Y-94561874D03*
D37*
X176718125Y-99641874D03*
%TD*%
D21*
%TO.C,C23*%
X256500000Y-69000000D03*
X256500000Y-64000000D03*
%TD*%
D20*
%TO.C,D13*%
X230690000Y-72000000D03*
D21*
X238310000Y-72000000D03*
%TD*%
D19*
%TO.C,R14*%
X230715000Y-68100000D03*
X238335000Y-68100000D03*
%TD*%
%TO.C,R10*%
X231215000Y-22000000D03*
X238835000Y-22000000D03*
%TD*%
D28*
%TO.C,D11*%
X251530000Y-33300000D03*
D11*
X246450000Y-33300000D03*
%TD*%
D21*
%TO.C,R6*%
X198068125Y-52608124D03*
X198068125Y-42448124D03*
%TD*%
%TO.C,C19*%
X252200000Y-53340000D03*
X252200000Y-48340000D03*
%TD*%
D38*
%TO.C,SW1*%
X180018125Y-24611874D03*
D19*
X183518125Y-24611874D03*
%TD*%
D39*
%TO.C,R2*%
X179018125Y-82301874D03*
D40*
X179018125Y-84841874D03*
X179018125Y-87381874D03*
%TD*%
D21*
%TO.C,R4*%
X183518125Y-76441874D03*
X183518125Y-66281874D03*
%TD*%
D41*
%TO.C,D1*%
X185438125Y-112611874D03*
D30*
X195598125Y-112611874D03*
%TD*%
D42*
%TO.C,U8*%
X216438125Y-23861874D03*
D43*
X218978125Y-23861874D03*
X221518125Y-23861874D03*
%TD*%
D19*
%TO.C,R16*%
X245300000Y-77830000D03*
X245300000Y-85450000D03*
%TD*%
D21*
%TO.C,R5*%
X183518125Y-89231874D03*
X183518125Y-79071874D03*
%TD*%
D20*
%TO.C,D14*%
X231430000Y-107485000D03*
D21*
X239050000Y-107485000D03*
%TD*%
D27*
%TO.C,REF\u002A\u002A*%
X263000000Y-17000000D03*
%TD*%
D21*
%TO.C,R18*%
X197848125Y-28361874D03*
X187688125Y-28361874D03*
%TD*%
D19*
%TO.C,R13*%
X245100000Y-44600000D03*
X245100000Y-52220000D03*
%TD*%
D21*
%TO.C,R8*%
X192618125Y-33281874D03*
X192618125Y-43441874D03*
%TD*%
D35*
%TO.C,J2*%
X262300000Y-71600000D03*
%TD*%
D17*
%TO.C,+12V3*%
X222768125Y-28086874D03*
D18*
X222768125Y-30626874D03*
%TD*%
D12*
%TO.C,RV2*%
X189978125Y-23361874D03*
X192518125Y-23361874D03*
X195058125Y-23361874D03*
%TD*%
D36*
%TO.C,J6*%
X176718125Y-106261874D03*
D37*
X176718125Y-111341874D03*
%TD*%
D20*
%TO.C,D7*%
X230380000Y-18000000D03*
D21*
X238000000Y-18000000D03*
%TD*%
%TO.C,C20*%
X252000000Y-85500000D03*
X252000000Y-80500000D03*
%TD*%
D19*
%TO.C,R17*%
X245150000Y-97380000D03*
X245150000Y-105000000D03*
%TD*%
D39*
%TO.C,R1*%
X179018125Y-69181874D03*
D40*
X179018125Y-71721874D03*
X179018125Y-74261874D03*
%TD*%
D19*
%TO.C,C7*%
X216518125Y-35111874D03*
X216518125Y-62611874D03*
%TD*%
%TO.C,R12*%
X245300000Y-21840000D03*
X245300000Y-29460000D03*
%TD*%
D20*
%TO.C,U4*%
X200648125Y-22031874D03*
D21*
X200648125Y-24571874D03*
X200648125Y-27111874D03*
X200648125Y-29651874D03*
X208268125Y-29651874D03*
X208268125Y-27111874D03*
X208268125Y-24571874D03*
X208268125Y-22031874D03*
%TD*%
D28*
%TO.C,D20*%
X251550000Y-89250000D03*
D11*
X246470000Y-89250000D03*
%TD*%
D36*
%TO.C,J7*%
X177250625Y-35716874D03*
D37*
X177250625Y-40796874D03*
%TD*%
D32*
%TO.C,D4*%
X204018125Y-52671874D03*
D21*
X204018125Y-45051874D03*
%TD*%
D44*
%TO.C,U5*%
X187708125Y-47144374D03*
D45*
X187708125Y-49684374D03*
X187708125Y-52224374D03*
X187708125Y-54764374D03*
X187708125Y-57304374D03*
X187708125Y-59844374D03*
X187708125Y-62384374D03*
X195328125Y-62384374D03*
X195328125Y-59844374D03*
X195328125Y-57304374D03*
X195328125Y-54764374D03*
X195328125Y-52224374D03*
X195328125Y-49684374D03*
X195328125Y-47144374D03*
%TD*%
D46*
X256963580Y-89386420D02*
X257390000Y-89386420D01*
D47*
X260186420Y-89386420D02*
X262000000Y-91200000D01*
X262000000Y-91200000D02*
X263000000Y-90200000D01*
X263000000Y-72700000D02*
X261800000Y-71500000D01*
X261326420Y-100926420D02*
X257390000Y-100926420D01*
X263000000Y-90200000D02*
X263000000Y-72700000D01*
X261600000Y-71500000D02*
X261500000Y-71600000D01*
D46*
X251500000Y-95500000D02*
X249000000Y-95500000D01*
D48*
X256963580Y-89436420D02*
X256963580Y-89386420D01*
D49*
X256963580Y-89661420D02*
X256963580Y-89436420D01*
X251500000Y-95500000D02*
X251500000Y-95125000D01*
D47*
X261800000Y-71500000D02*
X261600000Y-71500000D01*
X263000000Y-99252840D02*
X261326420Y-100926420D01*
D49*
X251500000Y-95125000D02*
X256963580Y-89661420D01*
D47*
X257390000Y-89386420D02*
X260186420Y-89386420D01*
D46*
X249000000Y-95500000D02*
X246470000Y-92970000D01*
D47*
X263000000Y-90200000D02*
X263000000Y-99252840D01*
D46*
X246470000Y-92970000D02*
X246470000Y-89250000D01*
X252200000Y-53200000D02*
X254900000Y-50500000D01*
X252200000Y-53340000D02*
X252200000Y-53200000D01*
X246500000Y-35790000D02*
X246500000Y-36500000D01*
D47*
X257445000Y-49926420D02*
X262273580Y-49926420D01*
D46*
X256871420Y-50500000D02*
X257445000Y-49926420D01*
X251470000Y-54070000D02*
X252200000Y-53340000D01*
X255500000Y-38500000D02*
X257390000Y-36610000D01*
X246520000Y-35770000D02*
X246450000Y-35700000D01*
X251470000Y-56645000D02*
X251470000Y-54070000D01*
D47*
X263000000Y-38996420D02*
X263000000Y-50600000D01*
D46*
X247825000Y-38500000D02*
X255500000Y-38500000D01*
X246450000Y-35700000D02*
X246450000Y-33300000D01*
D47*
X262300000Y-49900000D02*
X263000000Y-50600000D01*
X257390000Y-33386420D02*
X263000000Y-38996420D01*
D46*
X257390000Y-36610000D02*
X257390000Y-33386420D01*
X247825000Y-37825000D02*
X247825000Y-38500000D01*
D47*
X262273580Y-49926420D02*
X262300000Y-49900000D01*
D46*
X254900000Y-50500000D02*
X256871420Y-50500000D01*
X246520000Y-35770000D02*
X246500000Y-35790000D01*
X246520000Y-33400000D02*
X246520000Y-35770000D01*
D47*
X263000000Y-50600000D02*
X263000000Y-63300000D01*
X262150000Y-63150000D02*
X261400000Y-63900000D01*
X263000000Y-63300000D02*
X262300000Y-64000000D01*
D46*
X246500000Y-36500000D02*
X247825000Y-37825000D01*
X257266420Y-84050000D02*
X257390000Y-83926420D01*
M02*
