M48
; DRILL file KiCad 10.0.6 date 2026-09-27T16:50:28
; FORMAT={-:-/ absolute / metric / decimal}
; #@! TF.CreationDate,2026-09-27T16:50:28-04:00
; #@! TF.GenerationSoftware,Kicad,Pcbnew,10.0.6
; #@! TF.FileFunction,Plated,1,2,PTH
FMAT,2
METRIC
; #@! TA.AperFunction,Plated,PTH,ViaDrill
T1C0.300
; #@! TA.AperFunction,Plated,PTH,ComponentDrill
T2C0.700
; #@! TA.AperFunction,Plated,PTH,ComponentDrill
T3C0.710
; #@! TA.AperFunction,Plated,PTH,ComponentDrill
T4C0.780
; #@! TA.AperFunction,Plated,PTH,ComponentDrill
T5C0.800
; #@! TA.AperFunction,Plated,PTH,ComponentDrill
T6C0.870
; #@! TA.AperFunction,Plated,PTH,ComponentDrill
T7C1.000
; #@! TA.AperFunction,Plated,PTH,ComponentDrill
T8C1.100
; #@! TA.AperFunction,Plated,PTH,ComponentDrill
T9C1.118
; #@! TA.AperFunction,Plated,PTH,ComponentDrill
T10C1.200
; #@! TA.AperFunction,Plated,PTH,ComponentDrill
T11C1.300
; #@! TA.AperFunction,Plated,PTH,ComponentDrill
T12C1.340
; #@! TA.AperFunction,Plated,PTH,ComponentDrill
T13C1.790
; #@! TA.AperFunction,Plated,PTH,ComponentDrill
T14C3.750
%
G90
G05
T1
X181.158Y-78.572
X189.518Y-45.862
X196.863Y-39.378
X200.633Y-32.903
X200.788Y-40.782
X204.679Y-39.391
X210.6Y-98.5
X211.0Y-97.7
X211.4Y-96.8
X211.4Y-98.5
X211.7Y-96.0
X211.8Y-97.7
X212.2Y-96.8
X212.2Y-98.5
X212.5Y-96.0
X212.6Y-97.7
X212.9Y-98.5
X213.0Y-96.8
X213.3Y-96.0
X213.3Y-97.7
X213.7Y-96.8
X213.7Y-98.5
X214.0Y-96.0
X214.1Y-97.7
X214.5Y-96.8
X214.5Y-98.5
X214.8Y-96.0
X214.9Y-97.7
X215.2Y-98.5
X215.3Y-96.8
X215.6Y-96.0
X215.6Y-97.7
X216.0Y-96.8
X216.0Y-98.5
X216.3Y-96.0
X216.4Y-97.7
X216.8Y-96.8
X217.1Y-96.0
X254.0Y-99.5
T2
X186.468Y-31.542
X186.468Y-33.442
T3
X179.018Y-69.182
X179.018Y-71.722
X179.018Y-74.262
X179.018Y-82.302
X179.018Y-84.842
X179.018Y-87.382
T4
X177.328Y-45.992
X177.328Y-48.532
X177.328Y-51.072
X177.328Y-53.612
X177.328Y-56.152
X177.328Y-58.692
X177.328Y-61.232
X177.328Y-63.772
X185.268Y-45.992
X185.268Y-48.532
X185.268Y-51.072
X185.268Y-53.612
X185.268Y-56.152
X185.268Y-58.692
X185.268Y-61.232
X185.268Y-63.772
T5
X173.523Y-82.732
X173.523Y-85.272
X173.523Y-87.812
X174.0Y-24.96
X174.0Y-27.5
X174.0Y-30.04
X174.018Y-66.762
X174.018Y-76.922
X174.518Y-58.262
X174.518Y-63.262
X174.528Y-45.562
X174.528Y-55.722
X178.918Y-30.862
X183.518Y-66.282
X183.518Y-76.442
X183.518Y-79.072
X183.518Y-89.232
X183.918Y-30.862
X185.018Y-91.782
X185.018Y-101.942
X187.493Y-68.502
X187.493Y-71.042
X187.493Y-73.582
X187.493Y-76.122
X187.493Y-78.662
X187.493Y-81.202
X187.493Y-83.742
X187.688Y-28.362
X189.418Y-33.282
X189.418Y-43.442
X189.978Y-23.362
X192.518Y-23.362
X192.618Y-33.282
X192.618Y-43.442
X195.058Y-23.362
X195.113Y-68.502
X195.113Y-71.042
X195.113Y-73.582
X195.113Y-76.122
X195.113Y-78.662
X195.113Y-81.202
X195.113Y-83.742
X197.848Y-28.362
X198.068Y-42.448
X198.068Y-52.608
X199.355Y-55.945
X199.355Y-58.485
X199.355Y-61.025
X199.355Y-63.565
X200.5Y-66.0
X200.5Y-74.5
X200.5Y-84.1
X200.5Y-92.5
X200.5Y-102.0
X200.648Y-22.032
X200.648Y-24.572
X200.648Y-27.112
X200.648Y-29.652
X201.043Y-45.052
X201.043Y-52.672
X204.018Y-45.052
X204.018Y-52.672
X206.975Y-55.945
X206.975Y-58.485
X206.975Y-61.025
X206.975Y-63.565
X207.043Y-42.528
X207.043Y-52.688
X208.268Y-22.032
X208.268Y-24.572
X208.268Y-27.112
X208.268Y-29.652
X220.5Y-66.0
X220.5Y-74.5
X220.5Y-84.0
X220.5Y-92.5
X220.5Y-102.0
X229.19Y-58.0
X230.38Y-18.0
X230.69Y-72.0
X231.43Y-107.485
X236.81Y-58.0
X238.0Y-18.0
X238.31Y-72.0
X239.05Y-107.485
X252.0Y-80.5
X252.0Y-85.5
X252.0Y-101.2
X252.0Y-106.2
X252.1Y-24.8
X252.1Y-29.8
X252.2Y-48.34
X252.2Y-53.34
X256.5Y-64.0
X256.5Y-69.0
T6
X188.018Y-89.122
X188.018Y-91.662
X188.018Y-94.202
X188.018Y-96.742
X188.018Y-99.282
X188.018Y-101.822
X188.018Y-104.362
X195.665Y-89.122
X195.665Y-91.662
X195.665Y-94.202
X195.665Y-96.742
X195.665Y-99.282
X195.665Y-101.822
X195.665Y-104.362
T7
X213.768Y-28.087
X213.768Y-30.627
X218.268Y-28.087
X218.268Y-30.627
X222.768Y-28.087
X222.768Y-30.627
T8
X185.438Y-109.112
X185.438Y-112.612
X195.598Y-109.112
X195.598Y-112.612
X216.438Y-23.862
X218.978Y-23.862
X221.518Y-23.862
T9
X187.708Y-47.144
X187.708Y-49.684
X187.708Y-52.224
X187.708Y-54.764
X187.708Y-57.304
X187.708Y-59.844
X187.708Y-62.384
X195.328Y-47.144
X195.328Y-49.684
X195.328Y-52.224
X195.328Y-54.764
X195.328Y-57.304
X195.328Y-59.844
X195.328Y-62.384
T10
X180.018Y-24.612
X183.518Y-24.612
X216.518Y-35.112
X216.518Y-62.612
X230.215Y-62.0
X230.715Y-68.1
X231.215Y-22.0
X232.5Y-26.75
X232.5Y-54.25
X232.5Y-76.25
X232.5Y-103.75
X234.065Y-111.835
X237.835Y-62.0
X238.335Y-68.1
X238.835Y-22.0
X241.685Y-111.835
X242.38Y-65.5
X245.1Y-44.6
X245.1Y-52.22
X245.15Y-97.38
X245.15Y-105.0
X245.3Y-21.84
X245.3Y-29.46
X245.3Y-77.83
X245.3Y-85.45
X250.0Y-65.5
T11
X176.718Y-94.562
X176.718Y-99.642
X176.718Y-106.262
X176.718Y-111.342
X177.251Y-35.717
X177.251Y-40.797
T12
X246.39Y-56.645
X246.45Y-33.3
X246.47Y-89.25
X251.47Y-56.645
X251.53Y-33.3
X251.55Y-89.25
X251.72Y-112.3
X256.8Y-112.3
T13
X257.39Y-22.466
X257.39Y-27.926
X257.39Y-33.386
X257.39Y-78.466
X257.39Y-83.926
X257.39Y-89.386
X257.39Y-95.466
X257.39Y-100.926
X257.39Y-106.386
X257.445Y-44.466
X257.445Y-49.926
X257.445Y-55.386
T14
X212.5Y-110.0
X223.5Y-110.0
X262.3Y-64.0
X262.3Y-71.6
M30
